<svg width="372" height="83" viewBox="0 0 372 83" fill="none" xmlns="http://www.w3.org/2000/svg">
<path d="M44.4424 37.7902C48.8825 37.7902 52.4345 38.9742 55.0986 41.3423C56.1896 42.3064 56.9676 43.279 57.4328 44.26C57.9064 45.2326 58.1432 46.4589 58.1432 47.9389C58.1432 49.0637 57.7457 50.0236 56.9507 50.8186C56.1642 51.6051 55.2085 51.9984 54.0837 51.9984C52.9589 51.9984 51.999 51.6051 51.204 50.8186C50.4175 50.0236 50.0242 49.0637 50.0242 47.9389C50.0242 47.3638 50.1384 46.8226 50.3667 46.3151C50.5951 45.7992 50.9122 45.351 51.3182 44.9704C50.7093 43.8372 49.8847 43.0337 48.8444 42.5601C47.8127 42.0865 46.5145 41.8497 44.9499 41.8497C43.9266 41.8497 42.9751 42.0569 42.0956 42.4713C41.2245 42.8857 40.4675 43.465 39.8248 44.2093C39.1905 44.9535 38.645 45.8331 38.1883 46.8479C37.7316 47.8628 37.3891 48.9792 37.1608 50.197C36.9409 51.4064 36.8309 52.6834 36.8309 54.0281C36.8309 55.3559 36.9662 56.633 37.2369 57.8593C37.5075 59.0856 37.9008 60.2019 38.4167 61.2083C38.9325 62.2148 39.5372 63.0943 40.2307 63.847C40.9242 64.5912 41.7192 65.1706 42.6157 65.585C43.5206 65.9994 44.4678 66.2066 45.4573 66.2066C46.895 66.2066 48.2313 65.8218 49.4661 65.0522C50.7093 64.2826 51.7368 63.2043 52.5487 61.8173C53.3691 60.4218 53.8807 58.8403 54.0837 57.0728L58.1432 58.0876C57.9402 59.0771 57.7034 59.999 57.4328 60.8531C57.1622 61.6989 56.8239 62.5446 56.4179 63.3903C56.012 64.2276 55.551 64.9845 55.0352 65.6611C54.5193 66.3377 53.9103 66.9677 53.2084 67.5513C52.5064 68.1348 51.7326 68.6254 50.8869 69.0228C50.0411 69.4119 49.0728 69.7163 47.9818 69.9362C46.8908 70.1561 45.711 70.2661 44.4424 70.2661C42.9286 70.2661 41.4824 70.1054 40.1039 69.784C38.7338 69.4711 37.4906 69.0313 36.3742 68.4647C35.2663 67.898 34.243 67.2215 33.3042 66.4349C32.3655 65.6484 31.5536 64.7815 30.8686 63.8343C30.1835 62.8787 29.6 61.868 29.1179 60.8024C28.6443 59.7283 28.2891 58.6247 28.0523 57.4914C27.8155 56.3497 27.6971 55.1952 27.6971 54.0281C27.6971 52.861 27.8155 51.7109 28.0523 50.5776C28.2891 49.4359 28.6443 48.3322 29.1179 47.2666C29.6 46.1925 30.1835 45.1819 30.8686 44.2346C31.5536 43.279 32.3655 42.4079 33.3042 41.6214C34.243 40.8348 35.2663 40.1582 36.3742 39.5916C37.4906 39.025 38.7338 38.5852 40.1039 38.2723C41.4824 37.9509 42.9286 37.7902 44.4424 37.7902ZM67.8479 46.8606C69.3364 46.2771 70.9136 45.9853 72.5797 45.9853C74.2458 45.9853 75.8188 46.2771 77.2989 46.8606C78.7873 47.4442 80.0813 48.2603 81.1807 49.309C82.2802 50.3492 83.1471 51.6347 83.7813 53.1655C84.4241 54.6963 84.7455 56.3623 84.7455 58.1637C84.7455 59.9651 84.4241 61.6312 83.7813 63.162C83.1471 64.6927 82.2802 65.9825 81.1807 67.0312C80.0813 68.0714 78.7873 68.8833 77.2989 69.4669C75.8188 70.0504 74.2458 70.3422 72.5797 70.3422C70.9136 70.3422 69.3364 70.0504 67.8479 69.4669C66.3679 68.8833 65.0781 68.0714 63.9787 67.0312C62.8877 65.9825 62.0208 64.6927 61.3781 63.162C60.7438 61.6312 60.4266 59.9651 60.4266 58.1637C60.4266 56.3623 60.7438 54.6963 61.3781 53.1655C62.0208 51.6347 62.8877 50.3492 63.9787 49.309C65.0781 48.2603 66.3679 47.4442 67.8479 46.8606ZM72.5797 50.0448C71.9877 50.0448 71.4591 50.1293 70.994 50.2985C70.5288 50.4676 70.1017 50.7467 69.7127 51.1358C69.3237 51.5248 69.0023 52.028 68.7486 52.6454C68.5033 53.2628 68.3088 54.0324 68.165 54.9542C68.0297 55.8761 67.9621 56.9459 67.9621 58.1637C67.9621 59.3816 68.0297 60.4514 68.165 61.3733C68.3088 62.2951 68.5033 63.0647 68.7486 63.6821C69.0023 64.2995 69.3237 64.8027 69.7127 65.1917C70.1017 65.5807 70.5288 65.8598 70.994 66.029C71.4591 66.1981 71.9877 66.2827 72.5797 66.2827C73.324 66.2827 73.9709 66.1432 74.5207 65.8641C75.0704 65.5765 75.5482 65.1198 75.9542 64.494C76.3686 63.8682 76.6773 63.0267 76.8802 61.9695C77.0917 60.9123 77.1974 59.6438 77.1974 58.1637C77.1974 56.6837 77.0917 55.4151 76.8802 54.358C76.6773 53.3008 76.3686 52.4593 75.9542 51.8335C75.5482 51.2076 75.0704 50.7552 74.5207 50.4761C73.9709 50.1885 73.324 50.0448 72.5797 50.0448ZM94.6912 46.8606C96.1797 46.2771 97.757 45.9853 99.423 45.9853C101.089 45.9853 102.662 46.2771 104.142 46.8606C105.631 47.4442 106.925 48.2603 108.024 49.309C109.124 50.3492 109.99 51.6347 110.625 53.1655C111.267 54.6963 111.589 56.3623 111.589 58.1637C111.589 59.9651 111.267 61.6312 110.625 63.162C109.99 64.6927 109.124 65.9825 108.024 67.0312C106.925 68.0714 105.631 68.8833 104.142 69.4669C102.662 70.0504 101.089 70.3422 99.423 70.3422C97.757 70.3422 96.1797 70.0504 94.6912 69.4669C93.2112 68.8833 91.9215 68.0714 90.822 67.0312C89.731 65.9825 88.8642 64.6927 88.2214 63.162C87.5871 61.6312 87.27 59.9651 87.27 58.1637C87.27 56.3623 87.5871 54.6963 88.2214 53.1655C88.8642 51.6347 89.731 50.3492 90.822 49.309C91.9215 48.2603 93.2112 47.4442 94.6912 46.8606ZM99.423 50.0448C98.831 50.0448 98.3025 50.1293 97.8373 50.2985C97.3722 50.4676 96.9451 50.7467 96.556 51.1358C96.167 51.5248 95.8456 52.028 95.5919 52.6454C95.3466 53.2628 95.1521 54.0324 95.0084 54.9542C94.873 55.8761 94.8054 56.9459 94.8054 58.1637C94.8054 59.3816 94.873 60.4514 95.0084 61.3733C95.1521 62.2951 95.3466 63.0647 95.5919 63.6821C95.8456 64.2995 96.167 64.8027 96.556 65.1917C96.9451 65.5807 97.3722 65.8598 97.8373 66.029C98.3025 66.1981 98.831 66.2827 99.423 66.2827C100.167 66.2827 100.814 66.1432 101.364 65.8641C101.914 65.5765 102.392 65.1198 102.797 64.494C103.212 63.8682 103.521 63.0267 103.724 61.9695C103.935 60.9123 104.041 59.6438 104.041 58.1637C104.041 56.6837 103.935 55.4151 103.724 54.358C103.521 53.3008 103.212 52.4593 102.797 51.8335C102.392 51.2076 101.914 50.7552 101.364 50.4761C100.814 50.1885 100.167 50.0448 99.423 50.0448ZM127.053 50.4761V46.4166H139.231V50.4761H135.908L130.871 56.0071L137.658 65.6991H139.739V69.7586H127.56V65.6991H129.184L123.501 57.5802L129.971 50.4761H127.053ZM112.845 38.2977H122.486V65.6991H125.023V69.7586H112.845V65.6991H115.382V42.3571H112.845V38.2977ZM144.978 43.7145C144.191 42.9195 143.798 41.9596 143.798 40.8348C143.798 39.71 144.191 38.7543 144.978 37.9678C145.773 37.1728 146.733 36.7753 147.858 36.7753C148.983 36.7753 149.938 37.1728 150.725 37.9678C151.52 38.7543 151.917 39.71 151.917 40.8348C151.917 41.9596 151.52 42.9195 150.725 43.7145C149.938 44.501 148.983 44.8943 147.858 44.8943C146.733 44.8943 145.773 44.501 144.978 43.7145ZM141.768 46.4166H151.41V65.6991H153.947V69.7586H141.768V65.6991H144.306V50.4761H141.768V46.4166ZM172.722 45.9092C173.906 45.9092 174.942 46.0699 175.83 46.3912C176.718 46.7126 177.445 47.1566 178.012 47.7233C178.579 48.2814 179.035 48.9961 179.382 49.8672C179.737 50.7298 179.983 51.6601 180.118 52.6581C180.262 53.6476 180.334 54.7808 180.334 56.0579V65.6991H182.871V69.7586H170.692V65.6991H173.229V55.5504C173.229 54.2142 173.107 53.174 172.862 52.4297C172.625 51.6855 172.278 51.1738 171.821 50.8947C171.373 50.6156 170.76 50.4761 169.982 50.4761C169.271 50.4761 168.544 50.7763 167.8 51.3768C167.056 51.9773 166.349 52.8145 165.681 53.8886L165.618 65.6991H168.155V69.7586H155.977V65.6991H158.514V50.4761H155.977V46.4166H163.855L165.631 49.8545C165.944 49.2879 166.303 48.7804 166.709 48.3322C167.123 47.8755 167.614 47.4611 168.18 47.089C168.756 46.7084 169.428 46.4166 170.198 46.2136C170.967 46.0107 171.809 45.9092 172.722 45.9092ZM200.631 41.8497C200.631 40.7249 201.024 39.7692 201.811 38.9827C202.606 38.1877 203.566 37.7902 204.69 37.7902C205.113 37.7902 205.528 37.8536 205.934 37.9805C206.458 38.1412 206.915 38.3526 207.304 38.6148C207.701 38.877 208.023 39.1645 208.268 39.4774C208.513 39.7904 208.712 40.154 208.864 40.5684C209.016 40.9744 209.118 41.3846 209.169 41.799C209.228 42.2049 209.257 42.6574 209.257 43.1563C209.257 43.6722 209.156 44.2135 208.953 44.7801C208.75 45.3468 208.479 45.8838 208.141 46.3912C207.811 46.8902 207.448 47.3596 207.05 47.7994C206.661 48.2307 206.259 48.6113 205.845 48.9411C207.105 50.1843 207.735 51.7109 207.735 53.5207C207.735 54.8739 207.439 56.079 206.847 57.1362C206.263 58.1849 205.456 59.0348 204.424 59.686C203.392 60.3288 202.212 60.8151 200.885 61.1449C199.565 61.4748 198.128 61.6397 196.571 61.6397C195.286 61.6397 194.055 61.4959 192.88 61.2083C192.11 61.3267 191.518 61.534 191.104 61.83C190.689 62.126 190.482 62.4008 190.482 62.6545C190.482 62.9083 190.588 63.1408 190.799 63.3523C191.011 63.5637 191.243 63.6694 191.497 63.6694H198.601C202.179 63.6694 204.762 64.1811 206.352 65.2044C207.951 66.2277 208.75 67.9149 208.75 70.2661C208.75 71.3993 208.61 72.4269 208.331 73.3487C208.052 74.279 207.672 75.0698 207.19 75.721C206.716 76.3807 206.128 76.96 205.426 77.459C204.724 77.9664 203.988 78.3723 203.219 78.6768C202.449 78.9813 201.591 79.2265 200.644 79.4126C199.696 79.5986 198.779 79.7255 197.891 79.7932C197.003 79.8693 196.056 79.9073 195.049 79.9073C193.442 79.9073 191.988 79.7297 190.685 79.3745C189.391 79.0278 188.326 78.5499 187.488 77.941C186.66 77.3321 186.021 76.6301 185.573 75.8352C185.125 75.0486 184.9 74.2071 184.9 73.3107C184.9 71.4755 185.953 70.0419 188.059 69.0102C187.239 68.5958 186.592 68.0291 186.118 67.3103C185.645 66.5829 185.408 65.7076 185.408 64.6843C185.408 63.5425 185.738 62.5065 186.397 61.5762C187.057 60.6459 187.945 59.9694 189.061 59.5465C188.072 58.8445 187.298 57.9904 186.74 56.984C186.19 55.9775 185.915 54.8231 185.915 53.5207C185.915 52.4382 186.106 51.4656 186.486 50.603C186.875 49.7403 187.395 49.0257 188.047 48.459C188.706 47.8839 189.493 47.4103 190.406 47.0382C191.328 46.6576 192.296 46.387 193.311 46.2263C194.326 46.0656 195.413 45.9853 196.571 45.9853C199.244 45.9853 201.523 46.4251 203.409 47.3046C203.84 46.8056 204.175 46.3363 204.411 45.8965C203.354 45.8288 202.458 45.406 201.722 44.6279C200.995 43.8498 200.631 42.9238 200.631 41.8497ZM196.825 49.9687C195.633 49.9687 194.698 50.3112 194.022 50.9962C193.353 51.6813 193.019 52.6708 193.019 53.9647C193.019 55.2671 193.358 56.282 194.034 57.0093C194.711 57.7282 195.641 58.0876 196.825 58.0876C198.001 58.0876 198.927 57.724 199.603 56.9966C200.288 56.2609 200.631 55.2502 200.631 53.9647C200.631 52.6877 200.293 51.7024 199.616 51.0089C198.94 50.3154 198.009 49.9687 196.825 49.9687ZM192.956 69.7586C191.983 70.4521 191.497 71.2978 191.497 72.2958C191.497 73.3022 191.81 73.9746 192.436 74.3129C193.062 74.6596 194.271 74.833 196.064 74.833C200.124 74.833 202.153 73.8181 202.153 71.7884C202.153 71.2809 201.942 70.8158 201.519 70.3929C201.096 69.9701 200.631 69.7586 200.124 69.7586H192.956ZM225.242 38.2977H238.435C241.505 38.2977 243.911 38.3949 245.653 38.5894C247.404 38.7839 248.765 39.0884 249.738 39.5028C250.719 39.9088 251.62 40.5219 252.44 41.3423C253.176 42.078 253.73 43.0041 254.102 44.1205C254.483 45.2284 254.673 46.4166 254.673 47.6852C254.673 48.9369 254.25 50.1759 253.404 51.4022C252.558 52.6285 251.391 53.7195 249.903 54.6751C251.637 55.2333 252.948 56.0367 253.836 57.0854C254.732 58.1257 255.18 59.4746 255.18 61.1322C255.18 63.9654 254.233 66.1347 252.339 67.6401C251.924 67.9699 251.506 68.249 251.083 68.4774C250.66 68.7057 250.144 68.9002 249.535 69.0609C248.926 69.2216 248.321 69.3485 247.721 69.4415C247.12 69.5261 246.313 69.5937 245.298 69.6445C244.283 69.6952 243.285 69.729 242.304 69.7459C241.331 69.7544 240.042 69.7586 238.435 69.7586H225.242V65.6991H229.301V42.3571H225.242V38.2977ZM237.42 42.3571V53.5207H239.45C243.509 53.5207 245.539 51.6601 245.539 47.9389C245.539 47.1355 245.497 46.4547 245.412 45.8965C245.328 45.3299 245.175 44.8097 244.955 44.3361C244.744 43.8625 244.448 43.4904 244.067 43.2198C243.687 42.9407 243.201 42.7293 242.609 42.5855C242.017 42.4332 241.302 42.3571 240.465 42.3571H237.42ZM237.42 57.5802V65.6991H240.465C242.503 65.6991 243.941 65.3989 244.778 64.7985C245.624 64.198 246.046 63.1451 246.046 61.6397C246.046 60.6079 245.835 59.8044 245.412 59.2294C244.998 58.6458 244.321 58.2272 243.382 57.9734C242.444 57.7113 241.133 57.5802 239.45 57.5802H237.42ZM256.703 46.4166H266.344V60.6248C266.344 61.961 266.462 63.0013 266.699 63.7455C266.944 64.4898 267.291 65.0014 267.739 65.2805C268.196 65.5596 268.813 65.6991 269.591 65.6991C270.302 65.6991 271.029 65.3989 271.773 64.7985C272.526 64.198 273.236 63.3607 273.905 62.2866L273.955 50.4761H271.418V46.4166H281.059V65.6991H283.597V69.7586H275.719L273.943 66.3081C272.513 68.9467 270.15 70.2661 266.851 70.2661C265.667 70.2661 264.631 70.1054 263.743 69.784C262.855 69.4626 262.128 69.0228 261.561 68.4647C260.995 67.898 260.534 67.1834 260.178 66.3208C259.832 65.4497 259.586 64.5194 259.443 63.5299C259.307 62.5319 259.24 61.3944 259.24 60.1174V50.4761H256.703V46.4166ZM295.001 70.3422C293.022 70.3422 291.343 69.8347 289.965 68.8199C288.586 67.805 287.559 66.3884 286.882 64.5701C286.214 62.7518 285.88 60.5867 285.88 58.0749C285.88 56.2397 286.117 54.5609 286.59 53.0386C287.073 51.5163 287.741 50.2351 288.595 49.1948C289.457 48.1461 290.493 47.3385 291.703 46.7718C292.921 46.1967 294.253 45.9092 295.699 45.9092C296.426 45.9092 297.111 45.9768 297.754 46.1122C298.397 46.239 298.942 46.3997 299.391 46.5942C299.847 46.7887 300.279 47.0298 300.684 47.3173C301.09 47.6049 301.416 47.8755 301.661 48.1292C301.915 48.3829 302.16 48.6662 302.397 48.9792V42.3571H299.86V38.2977H309.501V65.6991H312.038V69.7586H304.503L302.968 66.8155C302.638 67.2722 302.266 67.6908 301.852 68.0714C300.177 69.5853 297.894 70.3422 295.001 70.3422ZM302.397 53.2797C301.433 51.5037 300.122 50.6156 298.464 50.6156C296.79 50.6156 295.542 51.2711 294.722 52.582C293.91 53.8928 293.504 55.7534 293.504 58.1637C293.504 59.297 293.635 60.3457 293.898 61.3098C294.168 62.2655 294.523 63.0605 294.963 63.6948C295.411 64.3291 295.923 64.8238 296.498 65.179C297.073 65.5258 297.674 65.6991 298.3 65.6991C299.145 65.6991 299.894 65.4666 300.545 65.0014C301.205 64.5278 301.822 63.8301 302.397 62.9083V53.2797ZM323.215 70.3422C321.236 70.3422 319.557 69.8347 318.178 68.8199C316.8 67.805 315.772 66.3884 315.096 64.5701C314.428 62.7518 314.093 60.5867 314.093 58.0749C314.093 56.2397 314.33 54.5609 314.804 53.0386C315.286 51.5163 315.954 50.2351 316.808 49.1948C317.671 48.1461 318.707 47.3385 319.916 46.7718C321.134 46.1967 322.466 45.9092 323.912 45.9092C324.64 45.9092 325.325 45.9768 325.967 46.1122C326.61 46.239 327.156 46.3997 327.604 46.5942C328.061 46.7887 328.492 47.0298 328.898 47.3173C329.304 47.6049 329.629 47.8755 329.875 48.1292C330.128 48.3829 330.374 48.6662 330.61 48.9792V42.3571H328.073V38.2977H337.715V65.6991H340.252V69.7586H332.716L331.181 66.8155C330.852 67.2722 330.479 67.6908 330.065 68.0714C328.39 69.5853 326.107 70.3422 323.215 70.3422ZM330.61 53.2797C329.646 51.5037 328.335 50.6156 326.678 50.6156C325.003 50.6156 323.756 51.2711 322.936 52.582C322.124 53.8928 321.718 55.7534 321.718 58.1637C321.718 59.297 321.849 60.3457 322.111 61.3098C322.382 62.2655 322.737 63.0605 323.177 63.6948C323.625 64.3291 324.136 64.8238 324.712 65.179C325.287 65.5258 325.887 65.6991 326.513 65.6991C327.359 65.6991 328.107 65.4666 328.758 65.0014C329.418 64.5278 330.035 63.8301 330.61 62.9083V53.2797ZM343.233 77.5858C342.785 76.9092 342.561 76.1608 342.561 75.3404C342.561 74.2156 342.954 73.2557 343.74 72.4607C344.535 71.6742 345.495 71.2809 346.62 71.2809C347.745 71.2809 348.701 71.6742 349.487 72.4607C350.282 73.2557 350.68 74.2156 350.68 75.3404C350.68 75.5772 350.658 75.8056 350.616 76.0255C350.65 76.0339 350.68 76.0381 350.705 76.0381C351.314 76.0381 352.058 75.0317 352.938 73.0189L353.889 70.8369L344.946 50.4761H342.561V46.4166H356.769V50.4761H352.595L356.617 59.6099C357.132 60.8109 357.505 61.8257 357.733 62.6545C357.961 61.8257 358.333 60.8109 358.849 59.6099L362.858 50.4761H359.306V46.4166H369.962V50.4761H367.273L358.798 69.7586C358.359 70.7566 357.961 71.615 357.606 72.3339C357.259 73.0612 356.866 73.797 356.426 74.5412C355.995 75.2939 355.576 75.9282 355.17 76.4441C354.764 76.96 354.303 77.4505 353.788 77.9156C353.28 78.3808 352.752 78.7487 352.202 79.0193C351.652 79.2984 351.043 79.5141 350.375 79.6663C349.707 79.827 348.988 79.9073 348.218 79.9073C347.5 79.9073 346.865 79.8481 346.316 79.7297C345.766 79.6198 345.296 79.4506 344.907 79.2223C344.527 79.0024 344.21 78.7614 343.956 78.4992C343.702 78.2455 343.461 77.941 343.233 77.5858Z" fill="#E76A56"/>
<g clip-path="url(#clip0_8_1086)">
<path d="M20.795 16.9853C23.7165 15.1864 27.4228 15.7403 29.706 18.1178C31.006 16.7352 32.8021 15.9255 34.699 15.8671C36.596 15.8087 38.4385 16.5062 39.8212 17.8062C41.2038 19.1063 42.0134 20.9023 42.0719 22.7993C42.1303 24.6962 41.4328 26.5387 40.1327 27.9214L46.8161 38.7758L28.5376 50.0303L21.8542 39.1759C20.953 39.4423 20.0081 39.5285 19.0735 39.4297C18.1389 39.3309 17.233 39.049 16.4073 38.6001C15.5817 38.1512 14.8526 37.544 14.2616 36.8133C13.6706 36.0826 13.2294 35.2426 12.963 34.3414C12.6966 33.4401 12.6104 32.4953 12.7092 31.5607C12.808 30.6261 13.0899 29.7201 13.5388 28.8945C13.9878 28.0689 14.5949 27.3398 15.3256 26.7488C16.0563 26.1578 16.8963 25.7165 17.7975 25.4502C17.2558 23.909 17.2577 22.2289 17.803 20.689C18.3483 19.1491 19.4041 17.8421 20.795 16.9853Z" fill="white" stroke="#1E1E1E" stroke-width="2.86207" stroke-linecap="round" stroke-linejoin="round"/>
<path d="M25.3369 42.6391L43.3617 31.5218" stroke="black" stroke-width="2.86207" stroke-linecap="round" stroke-linejoin="round"/>
</g>
<defs>
<clipPath id="clip0_8_1086">
<rect width="42.931" height="42.931" fill="white" transform="translate(0 22.5091) rotate(-31.6217)"/>
</clipPath>
</defs>
</svg>
